HIERARCHY
ROOT Model_Hips
{
	OFFSET 0.000000 96.915077 0.000000
	CHANNELS 6 Xposition Yposition Zposition Xrotation Yrotation Zrotation
	JOINT Model_Spine
	{
		OFFSET 0.000000 11.137703 -1.289900
		CHANNELS 3 Xrotation Yrotation Zrotation
		JOINT Model_Spine1
		{
			OFFSET 0.000000 12.993942 -1.504922
			CHANNELS 3 Xrotation Yrotation Zrotation
			JOINT Model_Spine2
			{
				OFFSET 0.000000 14.850220 -1.719911
				CHANNELS 3 Xrotation Yrotation Zrotation
				JOINT Model_Neck
				{
					OFFSET 0.000000 16.706543 -1.934903
					CHANNELS 3 Xrotation Yrotation Zrotation
					JOINT Model_Head
					{
						OFFSET 0.000000 10.471298 2.002100
						CHANNELS 3 Xrotation Yrotation Zrotation
						JOINT Model_HeadTop_End
						{
							OFFSET 0.000000 20.842606 3.985100
							CHANNELS 3 Xrotation Yrotation Zrotation
							End Site
							{
								OFFSET 0.000000 21.220154 0.000000
							}
						}
					}
				}
				JOINT Model_LeftShoulder
				{
					OFFSET 7.008500 14.768600 -1.919946
					CHANNELS 3 Xrotation Yrotation Zrotation
					JOINT Model_LeftArm
					{
						OFFSET 14.126271 -3.718048 0.029937
						CHANNELS 3 Xrotation Yrotation Zrotation
						JOINT Model_LeftForeArm
						{
							OFFSET 28.282801 0.000000 0.000000
							CHANNELS 3 Xrotation Yrotation Zrotation
							JOINT Model_LeftHand
							{
								OFFSET 26.204689 0.000000 0.000000
								CHANNELS 3 Xrotation Yrotation Zrotation
								End Site
								{
									OFFSET 26.204704 0.000000 0.000000
								}
							}
						}
					}
				}
				JOINT Model_RightShoulder
				{
					OFFSET -7.008500 14.768555 -1.949840
					CHANNELS 3 Xrotation Yrotation Zrotation
					JOINT Model_RightArm
					{
						OFFSET -14.126281 -3.718018 -0.029932
						CHANNELS 3 Xrotation Yrotation Zrotation
						JOINT Model_RightForeArm
						{
							OFFSET -28.283798 0.000000 -0.000001
							CHANNELS 3 Xrotation Yrotation Zrotation
							JOINT Model_RightHand
							{
								OFFSET -26.204193 0.000000 -0.000001
								CHANNELS 3 Xrotation Yrotation Zrotation
								End Site
								{
									OFFSET -26.204208 0.000000 -0.000001
								}
							}
						}
					}
				}
			}
		}
	}
	JOINT Model_LeftUpLeg
	{
		OFFSET 8.327700 -6.193199 -0.402800
		CHANNELS 3 Xrotation Yrotation Zrotation
		JOINT Model_LeftLeg
		{
			OFFSET 0.735802 -42.108742 -0.610721
			CHANNELS 3 Xrotation Yrotation Zrotation
			JOINT Model_LeftFoot
			{
				OFFSET -0.735806 -36.833748 -0.172876
				CHANNELS 3 Xrotation Yrotation Zrotation
				JOINT Model_LeftToeBase
				{
					OFFSET -0.565857 -11.977769 16.297714
					CHANNELS 3 Xrotation Yrotation Zrotation
					JOINT Model_LeftToe_End
					{
						OFFSET -0.111712 -0.312793 7.857784
						CHANNELS 3 Xrotation Yrotation Zrotation
						End Site
						{
							OFFSET -0.111712 -0.312793 7.857784
						}
					}
				}
			}
		}
	}
	JOINT Model_RightUpLeg
	{
		OFFSET -8.327700 -6.193199 -0.516500
		CHANNELS 3 Xrotation Yrotation Zrotation
		JOINT Model_RightLeg
		{
			OFFSET -0.735785 -42.108738 -0.434061
			CHANNELS 3 Xrotation Yrotation Zrotation
			JOINT Model_RightFoot
			{
				OFFSET 0.735776 -36.833748 -0.021630
				CHANNELS 3 Xrotation Yrotation Zrotation
				JOINT Model_RightToeBase
				{
					OFFSET 0.565817 -11.977745 15.903093
					CHANNELS 3 Xrotation Yrotation Zrotation
					JOINT Model_RightToe_End
					{
						OFFSET 0.111702 -0.312791 7.811342
						CHANNELS 3 Xrotation Yrotation Zrotation
						End Site
						{
							OFFSET 0.111702 -0.312791 7.811342
						}
					}
				}
			}
		}
	}
}
MOTION
Frames: 13
Frame Time: 0.033333
0.016452 96.809975 0.250099 -3.752867 -5.225261 -3.442420 3.304805 1.531372 2.415187 1.151891 0.339457 1.552798 1.126012 0.361543 1.555886 5.626314 -0.078963 0.454684 5.621623 -0.100141 0.492923 0.000001 0.000000 -0.000000 1.047068 -17.442094 -12.324872 3.916311 -19.989250 -69.765232 -0.000014 -1.459484 -0.000022 -0.000000 0.000000 0.000000 1.202397 15.343316 14.706133 13.159128 27.555153 58.785191 0.000008 6.693752 0.000018 -0.000000 -0.000000 0.000000 -9.632964 14.978379 10.049915 13.555785 1.943959 4.204723 -1.143740 0.719931 -7.535551 -4.928523 0.000011 -0.000001 0.000000 -0.000000 -0.000000 2.858631 -10.297664 3.946300 6.754046 -9.777031 -3.281220 -5.348477 -1.723081 3.127953 -7.245081 0.000003 0.000002 0.000000 -0.000000 0.000000 
-1.612348 96.781494 -0.013794 -3.770149 -7.602417 -3.636713 3.108701 1.061701 2.321364 1.089061 0.194406 1.621143 1.064878 0.217279 1.624274 5.540976 -0.510451 0.352968 5.517744 -0.543055 0.424370 0.000000 0.000001 -0.000000 1.086159 -17.170870 -12.336456 3.606180 -19.099989 -69.384040 0.000006 -1.269806 -0.000020 -0.000002 0.000000 0.000000 1.219351 15.149916 14.845741 13.163461 27.308891 59.188398 0.000009 7.532263 0.000013 -0.000003 -0.000000 0.000001 -13.310694 16.490640 13.492400 19.455780 -0.932942 3.250047 -0.734168 2.396063 -8.186381 -8.371727 -0.000007 -0.000001 0.000000 -0.000001 -0.000000 2.557509 -10.236980 5.448570 7.088281 -9.341367 -4.045251 -5.714268 0.009516 2.352759 -7.545051 -0.000004 -0.000001 0.000000 0.000001 0.000000 
-3.401376 96.646225 -0.296905 -3.795326 -10.074591 -3.837324 2.931863 0.787521 2.182556 1.043490 0.103109 1.686826 1.021052 0.126689 1.690041 5.444325 -0.940093 0.251815 5.403336 -0.983885 0.355798 0.000001 0.000000 0.000000 1.173146 -16.680756 -12.323557 3.017061 -17.971085 -69.085212 -0.000003 -1.346219 -0.000003 -0.000003 0.000000 -0.000001 1.277157 14.781395 15.053768 13.068874 27.035943 59.555725 0.000009 8.199414 0.000017 0.000001 0.000000 -0.000000 -16.752596 17.273355 17.196328 24.339048 -3.213734 2.474754 1.081281 2.887617 -9.843449 -12.991845 0.000000 -0.000002 0.000000 -0.000002 -0.000000 1.763622 -10.296458 6.842494 8.808895 -8.463515 -4.528179 -6.846911 1.392716 1.390011 -7.810475 0.000003 0.000000 0.000001 0.000001 0.000001 
-5.310774 96.429947 -0.552235 -3.829544 -12.644385 -4.039384 2.811068 0.797124 2.059307 1.025322 0.091381 1.760357 1.004730 0.115808 1.763750 5.344115 -1.382372 0.147367 5.284829 -1.437691 0.284882 0.000000 0.000000 0.000000 1.318750 -15.920271 -12.282304 2.064646 -16.576210 -68.872506 -0.000019 -1.719726 0.000001 0.000003 0.000000 -0.000000 1.372490 14.198682 15.357014 12.837250 26.823872 59.676640 0.000008 8.462012 -0.000002 0.000001 -0.000000 0.000000 -19.128353 17.117487 20.282610 27.513015 -5.070694 2.036698 2.954680 1.641834 -11.204494 -17.024233 -0.000000 -0.000000 -0.000001 -0.000000 -0.000000 1.026676 -10.419436 8.195166 10.835299 -7.100744 -4.783189 -8.178551 2.414404 0.177782 -8.032522 0.000015 0.000005 0.000001 -0.000002 0.000000 
-7.199989 96.171501 -0.735427 -3.874213 -15.314478 -4.234599 2.789850 1.136383 2.020401 1.042109 0.174563 1.854494 1.023485 0.200250 1.858237 5.259487 -1.870686 0.031379 5.179196 -1.939165 0.206980 0.000001 0.000000 0.000000 1.520853 -14.884111 -12.221804 0.739454 -14.980367 -68.736859 -0.000015 -2.340896 0.000003 0.000003 0.000001 -0.000000 1.585056 13.381839 15.363927 12.193045 26.945788 59.689897 0.000008 8.165031 -0.000007 -0.000001 -0.000000 0.000000 -19.890522 16.005809 21.891299 28.877237 -6.760120 2.248204 3.459725 -1.650666 -12.241987 -17.917849 -0.000002 -0.000001 0.000000 0.000000 -0.000000 0.595504 -10.507909 9.500970 12.585049 -5.435923 -4.983656 -9.378762 3.227957 -1.122716 -8.215421 0.000007 0.000001 0.000001 0.000002 0.000000 
-8.865227 95.917984 -0.819172 -3.931026 -18.087838 -4.420521 2.890866 1.756781 2.106409 1.091257 0.342347 1.976556 1.074647 0.369929 1.980862 5.217124 -2.453404 -0.107377 5.110092 -2.538635 0.116121 0.000000 -0.000002 0.000000 1.767165 -13.629591 -12.150937 -0.834743 -13.351077 -68.673420 -0.000010 -3.080082 0.000007 -0.000001 0.000000 -0.000000 1.859745 12.388677 15.391753 11.333775 27.473780 59.061097 0.000009 7.395270 -0.000003 -0.000003 0.000000 -0.000001 -19.199634 14.158066 21.608977 29.131590 -7.892384 3.376119 1.627798 -6.571912 -12.861626 -14.537173 0.000002 -0.000005 0.000000 -0.000001 -0.000000 0.469550 -10.442154 10.692779 13.861267 -3.903922 -5.312500 -10.312663 4.162220 -2.207906 -8.360326 -0.000005 0.000003 0.000000 -0.000002 0.000000 
-10.151774 95.709442 -0.789206 -4.001988 -20.967612 -4.609592 3.093819 2.542318 2.315149 1.158371 0.563454 2.122901 1.143729 0.593573 2.127941 5.239171 -3.173437 -0.277484 5.097679 -3.280800 0.008502 -0.000000 -0.000003 0.000001 2.045672 -12.231623 -12.071380 -2.436064 -11.865507 -68.708404 -0.000013 -3.816540 -0.000000 -0.000002 0.000001 -0.000000 2.182566 11.282765 15.481486 10.343569 28.493449 57.718179 0.000015 6.440023 0.000007 0.000001 -0.000000 0.000000 -18.310776 11.475717 19.967684 29.953484 -8.161688 5.166080 -1.229844 -11.547816 -13.239593 -11.596220 -0.005745 0.088469 -0.000000 0.000000 -0.000000 0.514138 -10.070851 11.631939 14.701145 -3.012965 -5.702607 -10.988482 5.584354 -2.890364 -8.417383 -0.000007 -0.000001 0.000000 -0.000000 0.000000 
-11.016602 95.570808 -0.632694 -4.089524 -23.956501 -4.821084 3.338536 3.370557 2.618210 1.222127 0.799680 2.281174 1.209296 0.832740 2.286983 5.333476 -4.042019 -0.478464 5.149939 -4.177573 -0.113710 0.000001 -0.000000 -0.000000 2.347839 -10.751064 -11.981689 -3.823709 -10.626430 -68.892806 0.000002 -4.478339 -0.000005 0.000002 0.000000 0.000001 2.536478 10.122667 15.654657 9.357180 29.972994 55.796065 -0.000004 5.595565 0.000007 0.000001 0.000001 0.000000 -18.859897 7.606355 17.810295 33.796138 -7.787371 7.013689 -4.387748 -14.492912 -13.811536 -9.311240 -0.066544 0.516553 0.000001 0.000001 -0.000000 0.585210 -9.208638 12.170947 15.189793 -3.173416 -5.870176 -11.468395 7.760550 -3.179055 -8.295808 0.000004 0.000001 0.000001 -0.000001 0.000000 
-11.514021 95.477341 -0.326733 -4.196743 -27.056410 -5.064487 3.553347 4.164978 2.989328 1.263459 1.021448 2.438686 1.252180 1.057629 2.445105 5.493726 -5.024695 -0.697011 5.263836 -5.193463 -0.240224 -0.000000 -0.000003 0.000001 2.667038 -9.231241 -11.877191 -4.823651 -9.639277 -69.269668 -0.000003 -5.024196 -0.000003 0.000003 0.000001 -0.000001 2.918980 8.942179 15.880794 8.504351 31.802006 53.574955 0.000006 5.055741 -0.000015 -0.000002 -0.000000 -0.000000 -19.604555 3.561542 14.529054 38.602747 -6.820708 8.560180 -8.577517 -15.118540 -9.377466 -4.302197 0.252828 -3.424330 0.000000 0.000000 0.000000 0.483198 -7.768137 12.327714 15.671181 -4.633015 -5.792460 -11.998387 10.794908 -3.036703 -7.990016 0.000006 -0.000002 0.000001 0.000000 0.000000 
-11.748419 95.411057 0.168585 -4.327679 -30.268745 -5.339763 3.688299 4.901774 3.427568 1.273821 1.216981 2.590349 1.263674 1.256336 2.597057 5.707617 -6.049616 -0.911146 5.431871 -6.254344 -0.354236 -0.000001 -0.000000 -0.000000 2.997062 -7.710404 -11.747405 -5.381303 -8.848293 -69.849975 -0.000003 -5.411630 0.000001 0.000002 0.000001 0.000000 3.330756 7.747816 16.143729 7.898420 33.851937 51.309662 0.000027 4.981684 -0.000008 -0.000002 -0.000001 -0.000000 -20.280140 -0.564230 11.237152 41.766501 -6.381496 9.318693 -10.033399 -14.616154 -6.428660 -5.245272 0.161574 -2.869295 0.000001 0.000000 -0.000000 0.242332 -5.805213 12.293733 16.172237 -7.332005 -5.752047 -12.709052 14.613343 -2.331404 -7.650635 -0.000011 -0.000002 0.000001 0.000001 0.000000 
-11.823706 95.359573 0.905318 -4.487554 -33.594149 -5.641863 3.733298 5.572148 3.934605 1.255850 1.389936 2.738799 1.248845 1.432642 2.745418 5.975207 -7.034364 -1.092204 5.652576 -7.274117 -0.437482 0.000001 -0.000001 0.000000 3.320649 -6.236288 -11.571806 -5.548072 -8.183572 -70.614464 -0.000004 -5.602298 -0.000004 -0.000002 -0.000000 0.000000 3.771206 6.555914 16.429813 7.604098 35.989940 49.199915 0.000009 5.574073 0.000001 0.000002 -0.000000 -0.000001 -20.718713 -4.515327 8.360361 43.080517 -7.043389 9.479469 -11.248329 -13.713377 -6.171871 -5.558145 0.000005 -0.000003 0.000001 0.000000 -0.000000 -0.026310 -3.478280 12.165016 16.721005 -10.030613 -5.888284 -13.619867 18.130805 -1.238054 -7.362688 0.000002 0.000002 -0.000000 0.000002 0.000000 
-11.814823 95.314484 1.935278 -4.683106 -37.031964 -5.968695 3.713092 6.141465 4.473900 1.240300 1.547259 2.885384 1.223466 1.593536 2.891618 6.253453 -7.910843 -1.220551 5.914504 -8.183172 -0.469561 -0.000000 0.000002 -0.000000 3.624479 -4.844909 -11.339057 -5.446475 -7.627317 -71.516015 -0.000009 -5.578410 -0.000004 0.000000 0.000000 0.000001 4.224098 5.424102 16.683828 7.591190 38.027010 47.430360 -0.000001 6.954260 0.000000 0.000000 0.000000 0.000000 -20.620315 -7.903591 6.158189 42.468702 -8.544196 9.454313 -13.806482 -13.056145 -8.300108 -8.226184 -0.000048 0.000005 0.000000 -0.000003 -0.000000 -0.212649 -0.969411 11.910257 17.478642 -10.181213 -6.131022 -14.516204 19.065052 -0.418721 -6.864560 -0.000004 -0.000003 0.000001 -0.000001 0.000000 
-11.761718 95.274696 3.292986 -4.923194 -40.580425 -6.329606 3.665007 6.548572 4.968483 1.230325 1.684994 3.018860 1.213747 1.734609 3.024676 6.574844 -8.641659 -1.280598 6.226218 -8.940772 -0.445689 -0.000001 -0.000002 0.000000 3.889782 -3.617648 -11.042048 -5.154206 -7.141379 -72.503121 -0.000002 -5.408430 -0.000020 -0.000001 -0.000000 0.000000 4.611384 4.505011 16.761658 7.704050 39.608824 46.252129 0.000023 8.963846 -0.000001 -0.000001 -0.000001 -0.000000 -19.646283 -10.314215 4.690697 39.996420 -10.073780 9.514485 -17.038607 -12.994275 -11.224521 -9.084497 -0.000027 0.000004 0.000000 -0.000001 -0.000000 -0.216451 1.524722 11.424167 18.176406 -10.151838 -6.384566 -15.593207 19.974881 0.625011 -5.862353 0.000010 -0.000002 0.000001 -0.000000 0.000000 
